<svg viewBox="0 0 256 256" xmlns="http://www.w3.org/2000/svg"><path fill="none" d="M0 0h256v256H0z"></path><path d="M224 177.3V78.7a8.1 8.1 0 0 0-4.1-7l-88-49.5a7.8 7.8 0 0 0-7.8 0l-88 49.5a8.1 8.1 0 0 0-4.1 7v98.6a8.1 8.1 0 0 0 4.1 7l88 49.5a7.8 7.8 0 0 0 7.8 0l88-49.5a8.1 8.1 0 0 0 4.1-7Z" fill="none" stroke="#808080" stroke-linecap="round" stroke-linejoin="round" stroke-width="16" class="stroke-000000"></path><path fill="none" stroke="#808080" stroke-linecap="round" stroke-linejoin="round" stroke-width="16" d="M177 152.5v-52L80 47" class="stroke-000000"></path><path fill="none" stroke="#808080" stroke-linecap="round" stroke-linejoin="round" stroke-width="16" d="m222.9 74.6-94 53.4-95.8-53.4M128.9 128l-.9 106.8" class="stroke-000000"></path></svg>