<svg viewBox="0 0 512 512" xml:space="preserve" xmlns="http://www.w3.org/2000/svg"><path d="M123.39 391.952h17.284v3.476c0 31.932 28.304 57.902 63.093 57.902H388.6c34.799 0 63.104-25.971 63.104-57.902V177.952c0-31.923-28.305-57.903-63.104-57.903h-17.283v-3.475c0-31.935-28.295-57.904-63.094-57.904H123.39c-34.789 0-63.093 25.97-63.093 57.904v217.474c0 31.922 28.304 57.904 63.093 57.904zM388.6 139.004c23.445 0 42.445 17.438 42.445 38.948v217.476c0 21.509-19 38.949-42.445 38.949H203.768c-23.436 0-42.435-17.44-42.435-38.949V177.952c0-21.511 18.999-38.948 42.435-38.948H388.6zm-307.656-22.43c0-21.511 18.999-38.949 42.446-38.949h184.833c23.447 0 42.445 17.438 42.445 38.949v3.475h-146.9c-34.789 0-63.093 25.98-63.093 57.903v195.045H123.39c-23.447 0-42.446-17.449-42.446-38.949V116.574z" fill="#808080" class="fill-000000"></path><path d="M196.708 198.035a8.207 8.207 0 0 0-8.21 8.211 8.207 8.207 0 0 0 8.21 8.21h164.228a8.208 8.208 0 0 0 8.211-8.21 8.208 8.208 0 0 0-8.211-8.211H196.708zM222.655 262.036c0 4.537 3.685 8.211 8.222 8.211H384.77c4.537 0 8.223-3.674 8.223-8.211s-3.686-8.221-8.223-8.221H230.877c-4.537 0-8.222 3.684-8.222 8.221zM349.153 317.815a8.209 8.209 0 0 0-8.211-8.21H196.708a8.206 8.206 0 0 0-8.21 8.21c0 4.536 3.673 8.223 8.21 8.223h144.234c4.535 0 8.211-3.687 8.211-8.223zM384.77 365.395H249.61a8.209 8.209 0 0 0-8.21 8.212 8.207 8.207 0 0 0 8.21 8.209h135.16c4.537 0 8.223-3.673 8.223-8.209-.001-4.537-3.686-8.212-8.223-8.212z" fill="#808080" class="fill-000000"></path></svg>